<svg width="18" height="18" viewBox="0 0 18 18" fill="none" xmlns="http://www.w3.org/2000/svg">
<path fill-rule="evenodd" clip-rule="evenodd" d="M15.7363 17.5362C16.2333 18.0332 17.0392 18.0332 17.5362 17.5362C18.0332 17.0392 18.0332 16.2333 17.5362 15.7363L10.7998 8.99992L17.5362 2.26352C18.0332 1.76648 18.0332 0.960639 17.5362 0.463608C17.0392 -0.0334225 16.2333 -0.0334225 15.7363 0.463608L8.99992 7.20002L2.26351 0.463594C1.76647 -0.0334377 0.960625 -0.0334377 0.463594 0.463594C-0.0334372 0.960624 -0.0334372 1.76647 0.463594 2.26351L7.20002 8.99992L0.463593 15.7363C-0.0334373 16.2333 -0.0334373 17.0392 0.463593 17.5362C0.960625 18.0333 1.76647 18.0333 2.26351 17.5362L8.99992 10.7998L15.7363 17.5362Z" fill="#0D0D0D"/>
</svg>
